<?xml version="1.0" encoding="utf-8"?>
<svg xmlns="http://www.w3.org/2000/svg"
	xmlns:xlink="http://www.w3.org/1999/xlink"
	width="48px" height="40px" >
<path d="M 46.5 39.5C 46.5 39.5 1.5 39.5 1.5 39.5 0.67 39.5-0 38.83-0 38-0 38-0 2-0 2-0 1.17 0.67 0.5 1.5 0.5 1.5 0.5 46.5 0.5 46.5 0.5 47.33 0.5 48 1.17 48 2 48 2 48 38 48 38 48 38.83 47.33 39.5 46.5 39.5ZM 45 3.5C 45 3.5 3 3.5 3 3.5 3 3.5 3 11.25 3 11.25 3 11.25 45 11.25 45 11.25 45 11.25 45 3.5 45 3.5ZM 45 14.25C 45 14.25 3 14.25 3 14.25 3 14.25 3 36.5 3 36.5 3 36.5 45 36.5 45 36.5 45 36.5 45 14.25 45 14.25ZM 7.85 6.01C 8.61 6.01 9.22 6.62 9.22 7.38 9.22 8.14 8.61 8.75 7.85 8.75 7.09 8.75 6.47 8.14 6.47 7.38 6.47 6.62 7.09 6.01 7.85 6.01ZM 13.19 6.01C 13.95 6.01 14.56 6.62 14.56 7.38 14.56 8.14 13.95 8.75 13.19 8.75 12.43 8.75 11.82 8.14 11.82 7.38 11.82 6.62 12.43 6.01 13.19 6.01ZM 18.53 6.01C 19.29 6.01 19.9 6.62 19.9 7.38 19.9 8.14 19.29 8.75 18.53 8.75 17.77 8.75 17.16 8.14 17.16 7.38 17.16 6.62 17.77 6.01 18.53 6.01Z" fill="rgb(201,144,101)"/></svg>