<?xml version="1.0" encoding="utf-8"?>
<svg xmlns="http://www.w3.org/2000/svg"
	xmlns:xlink="http://www.w3.org/1999/xlink"
	width="50px" height="50px" viewBox="0 0 50 50">
<path fillRule="evenodd" d="M 25 50C 11.19 50-0 38.81-0 25-0 11.19 11.19 0 25 0 38.81 0 50 11.19 50 25 50 38.81 38.81 50 25 50ZM 32.43 7C 32.43 7 13 27.97 13 27.97 13 27.97 23.16 27.97 23.16 27.97 23.16 27.97 18.57 43 18.57 43 18.57 43 38 21.98 38 21.98 38 21.98 27.83 21.98 27.83 21.98 27.83 21.98 32.43 7 32.43 7Z" fill="rgb(0,0,0)"/></svg>