<?xml version="1.0" encoding="utf-8"?>
<svg xmlns="http://www.w3.org/2000/svg"
	xmlns:xlink="http://www.w3.org/1999/xlink"
	width="30px" height="48px" >
<path d="M 15 48C 6.73 48-0 41.27-0 33-0 33-0 15-0 15-0 6.73 6.73-0 15-0 23.27-0 30 6.73 30 15 30 15 30 33 30 33 30 41.27 23.27 48 15 48ZM 15 3C 8.38 3 3 8.38 3 15 3 15 3 33 3 33 3 39.62 8.38 45 15 45 21.62 45 27 39.62 27 33 27 33 27 15 27 15 27 8.38 21.62 3 15 3ZM 15.18 20.53C 13.11 20.53 11.43 18.85 11.43 16.78 11.43 16.78 11.43 12.28 11.43 12.28 11.43 10.21 13.11 8.53 15.18 8.53 17.25 8.53 18.93 10.21 18.93 12.28 18.93 12.28 18.93 16.78 18.93 16.78 18.93 18.85 17.25 20.53 15.18 20.53ZM 15.18 11.53C 14.77 11.53 14.43 11.87 14.43 12.28 14.43 12.28 14.43 16.78 14.43 16.78 14.43 17.19 14.77 17.53 15.18 17.53 15.6 17.53 15.93 17.19 15.93 16.78 15.93 16.78 15.93 12.28 15.93 12.28 15.93 11.87 15.6 11.53 15.18 11.53Z" fill="rgb(201,144,101)"/></svg>