<?xml version="1.0" encoding="utf-8"?>
<svg xmlns="http://www.w3.org/2000/svg"
	xmlns:xlink="http://www.w3.org/1999/xlink"
	width="40px" height="40px" >
<path d="M 39 2.62C 39 2.62 35.16 14.77 35.16 14.77 35.14 14.84 35.11 14.9 35.08 14.97 35.07 14.99 35.07 15.01 35.06 15.03 35.05 15.04 35.04 15.04 35.04 15.06 34.97 15.18 34.89 15.29 34.79 15.39 34.79 15.39 15.82 34.36 15.82 34.36 15.82 34.36 15.82 34.36 15.82 34.36 15.82 34.36 15.82 34.36 15.82 34.36 15.82 34.36 11.08 39.1 11.08 39.1 10.49 39.69 9.55 39.69 8.98 39.12 8.98 39.12 0.66 30.8 0.66 30.8 0.08 30.23 0.09 29.29 0.68 28.7 0.68 28.7 5.42 23.96 5.42 23.96 5.42 23.96 5.42 23.96 5.42 23.96 5.42 23.96 5.42 23.96 5.42 23.96 5.42 23.96 24.39 4.99 24.39 4.99 24.49 4.89 24.6 4.81 24.72 4.74 24.73 4.74 24.74 4.73 24.75 4.72 24.77 4.71 24.79 4.71 24.81 4.7 24.88 4.67 24.94 4.64 25 4.62 25 4.62 37.16 0.78 37.16 0.78 38.21 0.45 39.33 1.57 39 2.62ZM 10.05 35.97C 10.05 35.97 12.68 33.34 12.68 33.34 12.68 33.34 6.44 27.1 6.44 27.1 6.44 27.1 3.81 29.73 3.81 29.73 3.81 29.73 10.05 35.97 10.05 35.97ZM 26.95 12.21C 26.95 12.21 25.03 8.51 25.03 8.51 25.03 8.51 8.56 24.98 8.56 24.98 8.56 24.98 14.8 31.22 14.8 31.22 14.8 31.22 31.27 14.75 31.27 14.75 31.27 14.75 27.57 12.83 27.57 12.83 27.44 12.76 27.32 12.67 27.22 12.56 27.11 12.46 27.02 12.34 26.95 12.21ZM 27.57 6.9C 27.57 6.9 29.38 10.4 29.38 10.4 29.38 10.4 32.88 12.21 32.88 12.21 32.88 12.21 35.32 4.46 35.32 4.46 35.32 4.46 27.57 6.9 27.57 6.9Z" fill="rgb(201,144,101)"/></svg>