<?xml version="1.0" encoding="utf-8"?>
<svg xmlns="http://www.w3.org/2000/svg"
	xmlns:xlink="http://www.w3.org/1999/xlink"
	width="54px" height="36px" >
<path d="M 52.5 35.5C 52.5 35.5 1.5 35.5 1.5 35.5 0.67 35.5-0 34.83-0 34-0 34-0 2-0 2-0 1.17 0.67 0.5 1.5 0.5 1.5 0.5 52.5 0.5 52.5 0.5 53.33 0.5 54 1.17 54 2 54 2 54 34 54 34 54 34.83 53.33 35.5 52.5 35.5ZM 51 3.5C 51 3.5 3 3.5 3 3.5 3 3.5 3 32.5 3 32.5 3 32.5 51 32.5 51 32.5 51 32.5 51 3.5 51 3.5ZM 19.99 26.49C 19.99 26.49 19.99 9.51 19.99 9.51 19.99 9.51 34 18 34 18 34 18 19.99 26.49 19.99 26.49Z" fill="rgb(201,144,101)"/></svg>